<svg height="auto" viewBox="0 -2 512 511" width="auto" xmlns="http://www.w3.org/2000/svg"><path d="m470.484375 212.785156c-.191406 0-.382813.003906-.574219.003906l-25.050781-43.386718c3.71875-6.21875 5.859375-13.488282 5.859375-21.246094 0-22.890625-18.625-41.511719-41.515625-41.511719-15.539063 0-29.113281 8.582031-36.226563 21.257813h-50.109374c-7.113282-12.675782-20.6875-21.257813-36.226563-21.257813-22.894531 0-41.515625 18.621094-41.515625 41.511719 0 7.757812 2.140625 15.027344 5.859375 21.246094l-25.050781 43.390625c-.191406-.003907-.382813-.003907-.574219-.003907-22.890625 0-41.515625 18.621094-41.515625 41.515626 0 22.890624 18.625 41.511718 41.515625 41.511718.191406 0 .382813 0 .574219-.003906l25.050781 43.390625c-3.71875 6.21875-5.859375 13.484375-5.859375 21.246094 0 22.890625 18.621094 41.511719 41.515625 41.511719 15.539063 0 29.113281-8.582032 36.226563-21.257813h50.109374c7.113282 12.675781 20.6875 21.257813 36.226563 21.257813 22.890625 0 41.515625-18.621094 41.515625-41.511719 0-7.757813-2.140625-15.027344-5.859375-21.246094l25.050781-43.386719c.191406 0 .382813.003906.574219.003906 22.894531-.003906 41.515625-18.625 41.515625-41.519531 0-22.890625-18.621094-41.515625-41.515625-41.515625zm-25.132813 8.496094-20.109374-34.832031c3.265624-1.371094 6.316406-3.148438 9.097656-5.269531l20.109375 34.832031c-3.265625 1.371093-6.320313 3.148437-9.097657 5.269531zm-36.148437-99.636719c14.621094 0 26.515625 11.894531 26.515625 26.515625 0 14.617188-11.894531 26.515625-26.515625 26.515625-14.617187 0-26.511719-11.898437-26.511719-26.515625 0-14.621094 11.894532-26.515625 26.511719-26.515625zm-41.179687 21.257813c-.21875 1.722656-.332032 3.476562-.332032 5.257812 0 1.777344.113282 3.535156.332032 5.253906h-40.199219c.21875-1.71875.328125-3.476562.328125-5.253906 0-1.78125-.113282-3.535156-.328125-5.257812zm-81.382813-21.257813c14.621094 0 26.515625 11.894531 26.515625 26.515625 0 14.617188-11.894531 26.515625-26.515625 26.515625s-26.515625-11.898437-26.515625-26.515625c0-14.621094 11.894531-26.515625 26.515625-26.515625zm-25.132813 59.535157c2.777344 2.121093 5.832032 3.898437 9.09375 5.269531l-20.109374 34.832031c-2.777344-2.121094-5.832032-3.898438-9.097657-5.269531zm-62.660156 73.121093c0-14.617187 11.890625-26.515625 26.511719-26.515625s26.515625 11.898438 26.515625 26.515625c0 14.621094-11.894531 26.515625-26.515625 26.515625s-26.511719-11.894531-26.511719-26.515625zm51.644532 33.023438 20.113281 34.828125c-3.265625 1.375-6.320313 3.152344-9.097657 5.273437l-20.109374-34.832031c3.261718-1.371094 6.316406-3.152344 9.09375-5.269531zm36.148437 99.636719c-14.621094 0-26.515625-11.894532-26.515625-26.515626 0-14.621093 11.894531-26.515624 26.515625-26.515624s26.515625 11.894531 26.515625 26.515624c0 14.621094-11.894531 26.515626-26.515625 26.515626zm41.183594-21.257813c.21875-1.722656.328125-3.476563.328125-5.257813s-.113282-3.535156-.328125-5.257812h40.199219c-.21875 1.722656-.332032 3.476562-.332032 5.257812s.113282 3.535157.332032 5.257813zm45.152343-25.515625h-50.109374c-7.113282-12.671875-20.6875-21.257812-36.226563-21.257812-.191406 0-.382813.003906-.574219.003906l-25.050781-43.386719c3.71875-6.21875 5.859375-13.488281 5.859375-21.246094 0-7.757812-2.140625-15.027343-5.859375-21.246093l25.050781-43.386719c.191406.003906.382813.003906.574219.003906 15.539063 0 29.113281-8.582031 36.226563-21.257813h50.109374c7.113282 12.675782 20.6875 21.257813 36.226563 21.257813.195313 0 .386719-.003906.578125-.003906l25.046875 43.386719c-3.71875 6.21875-5.855469 13.488281-5.855469 21.246093 0 7.757813 2.136719 15.023438 5.855469 21.242188l-25.046875 43.390625c-.191406-.003906-.382812-.003906-.578125-.003906-15.539063 0-29.113281 8.585937-36.226563 21.257812zm36.226563 46.773438c-14.617187 0-26.511719-11.894532-26.511719-26.515626 0-14.621093 11.894532-26.515624 26.511719-26.515624 14.621094 0 26.515625 11.894531 26.515625 26.515624 0 14.621094-11.894531 26.515626-26.515625 26.515626zm25.136719-59.535157c-2.78125-2.121093-5.832032-3.898437-9.097656-5.273437l20.109374-34.832032c2.777344 2.121094 5.832032 3.898438 9.097657 5.273438zm36.144531-46.609375c-14.621094 0-26.511719-11.894531-26.511719-26.515625 0-14.617187 11.890625-26.515625 26.511719-26.515625s26.515625 11.898438 26.515625 26.515625c0 14.621094-11.894531 26.515625-26.515625 26.515625zm0 0"/><path d="m264.945312 408.53125-14.453124 25.035156c-2.777344-2.121094-5.832032-3.898437-9.097657-5.269531l14.460938-25.058594-12.992188-7.496093-16.929687 29.335937c-.191406-.003906-.382813-.003906-.574219-.003906-15.539063 0-29.113281 8.582031-36.226563 21.253906h-50.109374c-7.113282-12.671875-20.6875-21.253906-36.226563-21.253906-.191406 0-.382813 0-.574219.003906l-25.050781-43.390625c3.71875-6.21875 5.859375-13.484375 5.859375-21.242188 0-7.757812-2.140625-15.027343-5.859375-21.246093l25.050781-43.386719c.191406 0 .382813.003906.574219.003906 15.542969 0 29.113281-8.585937 36.230469-21.257812h34.8125v-15h-29.859375c.21875-1.722656.332031-3.480469.332031-5.257813 0-1.78125-.113281-3.535156-.332031-5.257812h29.859375v-15h-34.8125c-7.117188-12.675781-20.6875-21.257813-36.230469-21.257813-.191406 0-.382813 0-.574219.003906l-25.050781-43.386718c3.71875-6.21875 5.855469-13.488282 5.855469-21.246094s-2.140625-15.023438-5.859375-21.242188l25.054687-43.394531c.277344.003907.550782.007813.832032.007813 15.539062 0 29.109374-8.582032 36.226562-21.253906h49.851562c7.113282 12.671874 20.6875 21.253906 36.226563 21.253906.191406 0 .382813 0 .574219-.003906l16.941406 29.34375 12.988281-7.5-14.46875-25.0625c3.265625-1.371094 6.320313-3.148438 9.097657-5.269532l14.460937 25.046875 12.992187-7.5-16.929687-29.324219c3.71875-6.21875 5.855469-13.484374 5.855469-21.242187 0-22.894531-18.621094-41.515625-41.511719-41.515625-15.542969 0-29.113281 8.582031-36.230469 21.257812h-49.847656c-7.117188-12.675781-20.6875-21.257812-36.230469-21.257812-22.890625 0-41.515625 18.621094-41.515625 41.515625 0 7.664063 2.089844 14.851563 5.730469 21.023437l-25.175781 43.609376c-.191406-.003907-.382813-.003907-.574219-.003907-22.894531 0-41.515625 18.625-41.515625 41.511719 0 22.894531 18.621094 41.515625 41.515625 41.515625.191406 0 .382813 0 .574219-.003906l25.050781 43.390625c-3.71875 6.21875-5.859375 13.484375-5.859375 21.242187 0 7.757813 2.140625 15.027344 5.859375 21.246094l-25.050781 43.386719c-.191406 0-.382813-.003906-.574219-.003906-22.894531 0-41.515625 18.625-41.515625 41.515624 0 22.890626 18.621094 41.515626 41.515625 41.515626.191406 0 .382813-.003907.574219-.003907l25.050781 43.386719c-3.71875 6.21875-5.859375 13.488281-5.859375 21.246094 0 22.890625 18.621094 41.515625 41.515625 41.515625 15.539063 0 29.113281-8.585938 36.226563-21.257813h50.109374c7.113282 12.671875 20.6875 21.257813 36.226563 21.257813 22.894531 0 41.515625-18.625 41.515625-41.515625 0-7.757813-2.140625-15.027344-5.859375-21.246094l16.921875-29.3125zm-39.585937-393.03125c14.621094 0 26.515625 11.894531 26.515625 26.515625s-11.894531 26.515625-26.515625 26.515625-26.515625-11.894531-26.515625-26.515625 11.894531-26.515625 26.515625-26.515625zm-41.183594 21.257812c-.21875 1.722657-.328125 3.476563-.328125 5.257813s.113282 3.535156.328125 5.257813h-39.941406c.21875-1.722657.332031-3.476563.332031-5.257813s-.113281-3.535156-.332031-5.257813zm-54.867187 217.542969c0 14.621094-11.894532 26.515625-26.511719 26.515625-14.621094 0-26.515625-11.894531-26.515625-26.515625 0-14.617187 11.894531-26.515625 26.515625-26.515625 14.617187 0 26.511719 11.898438 26.511719 26.515625zm-26.253906-238.800781c14.617187 0 26.511718 11.894531 26.511718 26.515625s-11.894531 26.515625-26.511718 26.515625c-14.621094 0-26.515626-11.894531-26.515626-26.515625s11.894532-26.515625 26.515626-26.515625zm-25.316407 59.398438c2.769531 2.136718 5.8125 3.929687 9.070313 5.320312l-20.160156 34.921875c-2.78125-2.121094-5.832032-3.898437-9.097657-5.273437zm-62.738281 73.257812c0-14.617188 11.894531-26.511719 26.515625-26.511719s26.511719 11.894531 26.511719 26.511719c0 14.621094-11.890625 26.515625-26.511719 26.515625s-26.515625-11.894531-26.515625-26.515625zm51.648438 33.023438 20.109374 34.832031c-3.265624 1.371093-6.316406 3.148437-9.097656 5.269531l-20.109375-34.832031c3.265625-1.371094 6.320313-3.148438 9.097657-5.269531zm11.011718 106.144531c2.78125 2.117187 5.832032 3.898437 9.097656 5.269531l-20.109374 34.832031c-2.777344-2.121093-5.832032-3.898437-9.097657-5.269531zm-62.660156 73.121093c0-14.621093 11.894531-26.515624 26.515625-26.515624s26.511719 11.894531 26.511719 26.515624c0 14.621094-11.890625 26.515626-26.511719 26.515626s-26.515625-11.894532-26.515625-26.515626zm51.648438 33.019532 20.109374 34.832031c-3.265624 1.371094-6.316406 3.148437-9.097656 5.269531l-20.109375-34.832031c3.265625-1.371094 6.316407-3.148437 9.097657-5.269531zm36.148437 99.636718c-14.621094 0-26.515625-11.894531-26.515625-26.511718 0-14.621094 11.894531-26.515625 26.515625-26.515625 14.617187 0 26.511719 11.894531 26.511719 26.515625 0 14.617187-11.894532 26.511718-26.511719 26.511718zm41.179687-21.257812c.21875-1.722656.332032-3.476562.332032-5.253906 0-1.78125-.113282-3.535156-.332032-5.257813h40.199219c-.21875 1.722657-.328125 3.476563-.328125 5.257813 0 1.777344.113282 3.53125.328125 5.253906zm81.382813 21.257812c-14.621094 0-26.515625-11.894531-26.515625-26.511718 0-14.621094 11.894531-26.515625 26.515625-26.515625s26.515625 11.894531 26.515625 26.515625c0 14.617187-11.894531 26.511718-26.515625 26.511718zm0 0"/><path d="m347.921875 229.726562c-13.550781 0-24.578125 11.023438-24.578125 24.574219 0 13.554688 11.027344 24.578125 24.578125 24.578125 13.554687 0 24.578125-11.023437 24.578125-24.578125 0-13.550781-11.023438-24.574219-24.578125-24.574219zm0 34.152344c-5.28125 0-9.578125-4.296875-9.578125-9.578125s4.296875-9.574219 9.578125-9.574219 9.578125 4.292969 9.578125 9.574219-4.296875 9.578125-9.578125 9.578125zm0 0"/><path d="m413.421875 272.515625v-36.425781l-15.386719-2.542969 9.078125-12.683594-25.753906-25.753906-12.679687 9.078125-2.546876-15.386719h-36.421874l-2.546876 15.386719-12.683593-9.078125-25.75 25.753906 9.078125 12.683594-15.386719 2.542969v36.425781l15.386719 2.542969-9.078125 12.683594 25.75 25.753906 12.683593-9.082032 2.546876 15.390626h36.421874l2.546876-15.390626 12.679687 9.082032 25.753906-25.753906-9.078125-12.683594zm-33.671875 21.378906-11.664062-8.355469c-6.738282 3.285157-5.28125 2.675782-12.332032 5.117188l-2.34375 14.144531h-10.976562l-2.339844-14.144531c-7.113281-2.460938-5.660156-1.863281-12.335938-5.117188l-11.664062 8.355469-7.761719-7.765625 8.351563-11.664062c-3.285156-6.742188-2.679688-5.292969-5.117188-12.332032l-14.144531-2.34375v-10.976562l14.144531-2.339844c2.460938-7.113281 1.863282-5.660156 5.117188-12.335937l-8.351563-11.664063 7.761719-7.761718 11.664062 8.351562c6.742188-3.285156 5.296876-2.679688 12.335938-5.117188l2.339844-14.144531h10.976562l2.34375 14.144531c7.109375 2.460938 5.652344 1.863282 12.332032 5.117188l11.664062-8.351562 7.761719 7.761718-8.351563 11.664063c3.292969 6.753906 2.6875 5.308593 5.117188 12.335937l14.144531 2.339844v10.976562l-14.144531 2.34375c-2.460938 7.109376-1.859375 5.652344-5.117188 12.332032l8.351563 11.664062zm0 0"/><path d="m225.359375 275.398438c-5.640625 0-10.941406-2.191407-14.921875-6.175782l10.605469-10.605468c1.148437 1.148437 2.679687 1.78125 4.316406 1.78125 1.632813 0 3.164063-.632813 4.3125-1.78125 1.148437-1.148438 1.78125-2.679688 1.78125-4.3125 0-1.636719-.632813-3.167969-1.78125-4.316407l10.609375-10.609375c3.980469 3.984375 6.171875 9.28125 6.171875 14.925782 0 5.640624-2.191406 10.9375-6.171875 14.921874-3.980469 3.980469-9.28125 6.171876-14.921875 6.171876zm0 0"/><path d="m470.484375 275.398438c-5.640625 0-10.9375-2.191407-14.921875-6.171876l10.605469-10.609374c1.148437 1.148437 2.683593 1.78125 4.316406 1.78125s3.167969-.632813 4.316406-1.78125c2.378907-2.378907 2.378907-6.25 0-8.632813l10.605469-10.605469c8.226562 8.230469 8.226562 21.617188 0 29.847656-3.980469 3.980469-9.277344 6.171876-14.921875 6.171876zm0 0"/><path d="m225.359375 487.6875c-5.640625 0-10.941406-2.195312-14.921875-6.175781l10.605469-10.609375c1.148437 1.152344 2.683593 1.785156 4.316406 1.785156s3.164063-.632812 4.3125-1.78125c2.382813-2.382812 2.382813-6.253906 0-8.632812l10.609375-10.605469c8.226562 8.226562 8.226562 21.617187 0 29.84375-3.980469 3.980469-9.28125 6.175781-14.921875 6.175781zm0 0"/><path d="m286.640625 381.539062c-5.402344 0-10.808594-2.058593-14.921875-6.171874l10.605469-10.605469c1.148437 1.148437 2.683593 1.78125 4.316406 1.78125s3.164063-.632813 4.3125-1.78125c1.148437-1.148438 1.78125-2.683594 1.78125-4.316407 0-1.632812-.628906-3.167968-1.78125-4.3125l10.609375-10.609374c8.226562 8.230468 8.226562 21.617187 0 29.847656-4.113281 4.109375-9.519531 6.167968-14.921875 6.167968zm0 0"/><path d="m225.359375 63.113281c-5.640625 0-10.941406-2.191406-14.921875-6.175781l10.605469-10.605469c1.148437 1.148438 2.683593 1.78125 4.316406 1.78125s3.164063-.632812 4.3125-1.78125c2.382813-2.378906 2.382813-6.253906 0-8.632812l10.609375-10.605469c8.226562 8.230469 8.226562 21.617188 0 29.84375-3.980469 3.984375-9.28125 6.175781-14.921875 6.175781zm0 0"/><path d="m286.640625 169.257812c-5.640625 0-10.941406-2.195312-14.921875-6.175781l10.605469-10.605469c1.148437 1.148438 2.683593 1.78125 4.316406 1.78125s3.167969-.636718 4.3125-1.785156c1.152344-1.148437 1.78125-2.679687 1.78125-4.3125 0-1.636718-.628906-3.167968-1.78125-4.316406l10.609375-10.605469c3.980469 3.980469 6.171875 9.28125 6.171875 14.921875s-2.191406 10.941406-6.171875 14.921875-9.28125 6.175781-14.921875 6.175781zm0 0"/><path d="m409.203125 381.539062c-5.402344 0-10.808594-2.058593-14.921875-6.171874l10.609375-10.605469c1.144531 1.148437 2.679687 1.78125 4.3125 1.78125 1.636719 0 3.167969-.632813 4.316406-1.78125 2.378907-2.378907 2.378907-6.253907 0-8.632813l10.605469-10.605468c8.226562 8.226562 8.226562 21.617187 0 29.84375-4.113281 4.113281-9.515625 6.171874-14.921875 6.171874zm0 0"/><path d="m409.203125 169.257812c-5.640625 0-10.9375-2.195312-14.921875-6.175781l10.609375-10.605469c1.144531 1.148438 2.679687 1.78125 4.3125 1.78125 1.636719 0 3.167969-.636718 4.316406-1.78125 1.148438-1.152343 1.78125-2.683593 1.78125-4.316406 0-1.636718-.632812-3.167968-1.78125-4.316406l10.605469-10.605469c3.980469 3.980469 6.175781 9.28125 6.175781 14.921875s-2.195312 10.941406-6.175781 14.921875-9.277344 6.175781-14.921875 6.175781zm0 0"/></svg>